  0
SECTION
  2
BLOCKS
  0
ENDSEC
  0
SECTION
  2
ENTITIES
  0
LINE
  8
0
 10
1.81537
 20
-73.5651
 11
4.23398
 21
-73.4656
  0
LINE
  8
0
 10
4.23398
 20
-73.4656
 11
6.64798
 21
-73.2866
  0
LINE
  8
0
 10
6.64798
 20
-73.2866
 11
9.05482
 21
-73.0283
  0
LINE
  8
0
 10
9.05482
 20
-73.0283
 11
11.4518
 21
-72.691
  0
LINE
  8
0
 10
11.4518
 20
-72.691
 11
13.8365
 21
-72.275
  0
LINE
  8
0
 10
13.8365
 20
-72.275
 11
16.2061
 21
-71.7808
  0
LINE
  8
0
 10
16.2061
 20
-71.7808
 11
18.5583
 21
-71.2089
  0
LINE
  8
0
 10
18.5583
 20
-71.2089
 11
20.8903
 21
-70.56
  0
LINE
  8
0
 10
20.8903
 20
-70.56
 11
23.1997
 21
-69.8348
  0
LINE
  8
0
 10
23.1997
 20
-69.8348
 11
25.4841
 21
-69.0339
  0
LINE
  8
0
 10
25.4841
 20
-69.0339
 11
27.7408
 21
-68.1584
  0
LINE
  8
0
 10
27.7408
 20
-68.1584
 11
29.9676
 21
-67.2091
  0
LINE
  8
0
 10
29.9676
 20
-67.2091
 11
32.1619
 21
-66.1871
  0
LINE
  8
0
 10
32.1619
 20
-66.1871
 11
34.3214
 21
-65.0935
  0
LINE
  8
0
 10
34.3214
 20
-65.0935
 11
36.4438
 21
-63.9294
  0
LINE
  8
0
 10
36.4438
 20
-63.9294
 11
38.5267
 21
-62.6962
  0
LINE
  8
0
 10
38.5267
 20
-62.6962
 11
40.568
 21
-61.3951
  0
LINE
  8
0
 10
40.568
 20
-61.3951
 11
42.5653
 21
-60.0276
  0
LINE
  8
0
 10
42.5653
 20
-60.0276
 11
44.5166
 21
-58.5951
  0
LINE
  8
0
 10
44.5166
 20
-58.5951
 11
46.4198
 21
-57.0993
  0
LINE
  8
0
 10
46.4198
 20
-57.0993
 11
48.2727
 21
-55.5416
  0
LINE
  8
0
 10
48.2727
 20
-55.5416
 11
50.0733
 21
-53.9239
  0
LINE
  8
0
 10
50.0733
 20
-53.9239
 11
51.8198
 21
-52.2477
  0
LINE
  8
0
 10
51.8198
 20
-52.2477
 11
53.5102
 21
-50.5151
  0
LINE
  8
0
 10
53.5102
 20
-50.5151
 11
55.1427
 21
-48.7278
  0
LINE
  8
0
 10
55.1427
 20
-48.7278
 11
56.7156
 21
-46.8878
  0
LINE
  8
0
 10
56.7156
 20
-46.8878
 11
58.2271
 21
-44.997
  0
LINE
  8
0
 10
58.2271
 20
-44.997
 11
59.6755
 21
-43.0576
  0
LINE
  8
0
 10
59.6755
 20
-43.0576
 11
61.0594
 21
-41.0715
  0
LINE
  8
0
 10
61.0594
 20
-41.0715
 11
62.3772
 21
-39.041
  0
LINE
  8
0
 10
62.3772
 20
-39.041
 11
63.6275
 21
-36.9683
  0
LINE
  8
0
 10
63.6275
 20
-36.9683
 11
64.809
 21
-34.8556
  0
LINE
  8
0
 10
64.809
 20
-34.8556
 11
65.9204
 21
-32.7051
  0
LINE
  8
0
 10
65.9204
 20
-32.7051
 11
66.9604
 21
-30.5193
  0
LINE
  8
0
 10
66.9604
 20
-30.5193
 11
67.9279
 21
-28.3004
  0
LINE
  8
0
 10
67.9279
 20
-28.3004
 11
68.822
 21
-26.0509
  0
LINE
  8
0
 10
68.822
 20
-26.0509
 11
69.6416
 21
-23.7733
  0
LINE
  8
0
 10
69.6416
 20
-23.7733
 11
70.3858
 21
-21.4699
  0
LINE
  8
0
 10
70.3858
 20
-21.4699
 11
71.0539
 21
-19.1432
  0
LINE
  8
0
 10
71.0539
 20
-19.1432
 11
71.6451
 21
-16.7959
  0
LINE
  8
0
 10
71.6451
 20
-16.7959
 11
72.1588
 21
-14.4304
  0
LINE
  8
0
 10
72.1588
 20
-14.4304
 11
72.5943
 21
-12.0493
  0
LINE
  8
0
 10
72.5943
 20
-12.0493
 11
72.9514
 21
-9.65508
  0
LINE
  8
0
 10
72.9514
 20
-9.65508
 11
73.2294
 21
-7.25047
  0
LINE
  8
0
 10
73.2294
 20
-7.25047
 11
73.4283
 21
-4.83801
  0
LINE
  8
0
 10
73.4283
 20
-4.83801
 11
73.5477
 21
-2.42032
  0
LINE
  8
0
 10
73.5477
 20
-2.42032
 11
73.5875
 21
0
  0
LINE
  8
0
 10
73.5875
 20
0
 11
73.5477
 21
2.42032
  0
LINE
  8
0
 10
73.5477
 20
2.42032
 11
73.4283
 21
4.83801
  0
LINE
  8
0
 10
73.4283
 20
4.83801
 11
73.2294
 21
7.25047
  0
LINE
  8
0
 10
73.2294
 20
7.25047
 11
72.9514
 21
9.65508
  0
LINE
  8
0
 10
72.9514
 20
9.65508
 11
72.5943
 21
12.0493
  0
LINE
  8
0
 10
72.5943
 20
12.0493
 11
72.1588
 21
14.4304
  0
LINE
  8
0
 10
72.1588
 20
14.4304
 11
71.6451
 21
16.7959
  0
LINE
  8
0
 10
71.6451
 20
16.7959
 11
71.0539
 21
19.1432
  0
LINE
  8
0
 10
71.0539
 20
19.1432
 11
70.3858
 21
21.4699
  0
LINE
  8
0
 10
70.3858
 20
21.4699
 11
69.6416
 21
23.7733
  0
LINE
  8
0
 10
69.6416
 20
23.7733
 11
68.822
 21
26.0509
  0
LINE
  8
0
 10
68.822
 20
26.0509
 11
67.9279
 21
28.3004
  0
LINE
  8
0
 10
67.9279
 20
28.3004
 11
66.9604
 21
30.5193
  0
LINE
  8
0
 10
66.9604
 20
30.5193
 11
65.9204
 21
32.7051
  0
LINE
  8
0
 10
65.9204
 20
32.7051
 11
64.809
 21
34.8556
  0
LINE
  8
0
 10
64.809
 20
34.8556
 11
63.6275
 21
36.9683
  0
LINE
  8
0
 10
63.6275
 20
36.9683
 11
62.3772
 21
39.041
  0
LINE
  8
0
 10
62.3772
 20
39.041
 11
61.0594
 21
41.0715
  0
LINE
  8
0
 10
61.0594
 20
41.0715
 11
59.6755
 21
43.0576
  0
LINE
  8
0
 10
59.6755
 20
43.0576
 11
58.2271
 21
44.997
  0
LINE
  8
0
 10
58.2271
 20
44.997
 11
56.7156
 21
46.8878
  0
LINE
  8
0
 10
56.7156
 20
46.8878
 11
55.1427
 21
48.7278
  0
LINE
  8
0
 10
55.1427
 20
48.7278
 11
53.5102
 21
50.5151
  0
LINE
  8
0
 10
53.5102
 20
50.5151
 11
51.8198
 21
52.2477
  0
LINE
  8
0
 10
51.8198
 20
52.2477
 11
50.0733
 21
53.9239
  0
LINE
  8
0
 10
50.0733
 20
53.9239
 11
48.2727
 21
55.5416
  0
LINE
  8
0
 10
48.2727
 20
55.5416
 11
46.4198
 21
57.0993
  0
LINE
  8
0
 10
46.4198
 20
57.0993
 11
44.5166
 21
58.5951
  0
LINE
  8
0
 10
44.5166
 20
58.5951
 11
42.5653
 21
60.0276
  0
LINE
  8
0
 10
42.5653
 20
60.0276
 11
40.568
 21
61.3951
  0
LINE
  8
0
 10
40.568
 20
61.3951
 11
38.5267
 21
62.6962
  0
LINE
  8
0
 10
38.5267
 20
62.6962
 11
36.4438
 21
63.9294
  0
LINE
  8
0
 10
36.4438
 20
63.9294
 11
34.3214
 21
65.0935
  0
LINE
  8
0
 10
34.3214
 20
65.0935
 11
32.1619
 21
66.1871
  0
LINE
  8
0
 10
32.1619
 20
66.1871
 11
29.9676
 21
67.2091
  0
LINE
  8
0
 10
29.9676
 20
67.2091
 11
27.7408
 21
68.1584
  0
LINE
  8
0
 10
27.7408
 20
68.1584
 11
25.4841
 21
69.0339
  0
LINE
  8
0
 10
25.4841
 20
69.0339
 11
23.1997
 21
69.8348
  0
LINE
  8
0
 10
23.1997
 20
69.8348
 11
20.8903
 21
70.56
  0
LINE
  8
0
 10
20.8903
 20
70.56
 11
18.5583
 21
71.2089
  0
LINE
  8
0
 10
18.5583
 20
71.2089
 11
16.2061
 21
71.7808
  0
LINE
  8
0
 10
16.2061
 20
71.7808
 11
13.8365
 21
72.275
  0
LINE
  8
0
 10
13.8365
 20
72.275
 11
11.4518
 21
72.691
  0
LINE
  8
0
 10
11.4518
 20
72.691
 11
9.05482
 21
73.0283
  0
LINE
  8
0
 10
9.05482
 20
73.0283
 11
6.64798
 21
73.2866
  0
LINE
  8
0
 10
6.64798
 20
73.2866
 11
4.23398
 21
73.4656
  0
LINE
  8
0
 10
4.23398
 20
73.4656
 11
1.81537
 21
73.5651
  0
LINE
  8
0
 10
1.81537
 20
73.5651
 11
-0.605179
 21
73.585
  0
LINE
  8
0
 10
-0.605179
 20
73.585
 11
-3.02509
 21
73.5253
  0
LINE
  8
0
 10
-3.02509
 20
73.5253
 11
-5.44171
 21
73.386
  0
LINE
  8
0
 10
-5.44171
 20
73.386
 11
-7.85246
 21
73.1673
  0
LINE
  8
0
 10
-7.85246
 20
73.1673
 11
-10.2547
 21
72.8695
  0
LINE
  8
0
 10
-10.2547
 20
72.8695
 11
-12.6459
 21
72.4928
  0
LINE
  8
0
 10
-12.6459
 20
72.4928
 11
-15.0233
 21
72.0376
  0
LINE
  8
0
 10
-15.0233
 20
72.0376
 11
-17.3846
 21
71.5045
  0
LINE
  8
0
 10
-17.3846
 20
71.5045
 11
-19.7269
 21
70.8941
  0
LINE
  8
0
 10
-19.7269
 20
70.8941
 11
-22.048
 21
70.2069
  0
LINE
  8
0
 10
-22.048
 20
70.2069
 11
-24.3452
 21
69.4437
  0
LINE
  8
0
 10
-24.3452
 20
69.4437
 11
-26.6161
 21
68.6054
  0
LINE
  8
0
 10
-26.6161
 20
68.6054
 11
-28.8581
 21
67.6929
  0
LINE
  8
0
 10
-28.8581
 20
67.6929
 11
-31.0689
 21
66.7071
  0
LINE
  8
0
 10
-31.0689
 20
66.7071
 11
-33.2462
 21
65.6492
  0
LINE
  8
0
 10
-33.2462
 20
65.6492
 11
-35.3874
 21
64.5202
  0
LINE
  8
0
 10
-35.3874
 20
64.5202
 11
-37.4903
 21
63.3214
  0
LINE
  8
0
 10
-37.4903
 20
63.3214
 11
-39.5527
 21
62.054
  0
LINE
  8
0
 10
-39.5527
 20
62.054
 11
-41.5723
 21
60.7196
  0
LINE
  8
0
 10
-41.5723
 20
60.7196
 11
-43.5469
 21
59.3194
  0
LINE
  8
0
 10
-43.5469
 20
59.3194
 11
-45.4743
 21
57.855
  0
LINE
  8
0
 10
-45.4743
 20
57.855
 11
-47.3526
 21
56.328
  0
LINE
  8
0
 10
-47.3526
 20
56.328
 11
-49.1797
 21
54.7401
  0
LINE
  8
0
 10
-49.1797
 20
54.7401
 11
-50.9535
 21
53.093
  0
LINE
  8
0
 10
-50.9535
 20
53.093
 11
-52.6721
 21
51.3884
  0
LINE
  8
0
 10
-52.6721
 20
51.3884
 11
-54.3338
 21
49.6282
  0
LINE
  8
0
 10
-54.3338
 20
49.6282
 11
-55.9367
 21
47.8143
  0
LINE
  8
0
 10
-55.9367
 20
47.8143
 11
-57.4791
 21
45.9486
  0
LINE
  8
0
 10
-57.4791
 20
45.9486
 11
-58.9592
 21
44.0333
  0
LINE
  8
0
 10
-58.9592
 20
44.0333
 11
-60.3756
 21
42.0703
  0
LINE
  8
0
 10
-60.3756
 20
42.0703
 11
-61.7267
 21
40.0617
  0
LINE
  8
0
 10
-61.7267
 20
40.0617
 11
-63.0109
 21
38.0098
  0
LINE
  8
0
 10
-63.0109
 20
38.0098
 11
-64.227
 21
35.9168
  0
LINE
  8
0
 10
-64.227
 20
35.9168
 11
-65.3735
 21
33.7849
  0
LINE
  8
0
 10
-65.3735
 20
33.7849
 11
-66.4494
 21
31.6165
  0
LINE
  8
0
 10
-66.4494
 20
31.6165
 11
-67.4533
 21
29.4138
  0
LINE
  8
0
 10
-67.4533
 20
29.4138
 11
-68.3842
 21
27.1794
  0
LINE
  8
0
 10
-68.3842
 20
27.1794
 11
-69.2412
 21
24.9155
  0
LINE
  8
0
 10
-69.2412
 20
24.9155
 11
-70.0232
 21
22.6246
  0
LINE
  8
0
 10
-70.0232
 20
22.6246
 11
-70.7294
 21
20.3093
  0
LINE
  8
0
 10
-70.7294
 20
20.3093
 11
-71.3592
 21
17.972
  0
LINE
  8
0
 10
-71.3592
 20
17.972
 11
-71.9117
 21
15.6153
  0
LINE
  8
0
 10
-71.9117
 20
15.6153
 11
-72.3863
 21
13.2416
  0
LINE
  8
0
 10
-72.3863
 20
13.2416
 11
-72.7827
 21
10.8536
  0
LINE
  8
0
 10
-72.7827
 20
10.8536
 11
-73.1003
 21
8.45392
  0
LINE
  8
0
 10
-73.1003
 20
8.45392
 11
-73.3388
 21
6.04506
  0
LINE
  8
0
 10
-73.3388
 20
6.04506
 11
-73.4979
 21
3.62965
  0
LINE
  8
0
 10
-73.4979
 20
3.62965
 11
-73.5775
 21
1.21031
  0
LINE
  8
0
 10
-73.5775
 20
1.21031
 11
-73.5775
 21
-1.21031
  0
LINE
  8
0
 10
-73.5775
 20
-1.21031
 11
-73.4979
 21
-3.62965
  0
LINE
  8
0
 10
-73.4979
 20
-3.62965
 11
-73.3388
 21
-6.04506
  0
LINE
  8
0
 10
-73.3388
 20
-6.04506
 11
-73.1003
 21
-8.45392
  0
LINE
  8
0
 10
-73.1003
 20
-8.45392
 11
-72.7827
 21
-10.8536
  0
LINE
  8
0
 10
-72.7827
 20
-10.8536
 11
-72.3863
 21
-13.2416
  0
LINE
  8
0
 10
-72.3863
 20
-13.2416
 11
-71.9117
 21
-15.6153
  0
LINE
  8
0
 10
-71.9117
 20
-15.6153
 11
-71.3592
 21
-17.972
  0
LINE
  8
0
 10
-71.3592
 20
-17.972
 11
-70.7294
 21
-20.3093
  0
LINE
  8
0
 10
-70.7294
 20
-20.3093
 11
-70.0232
 21
-22.6246
  0
LINE
  8
0
 10
-70.0232
 20
-22.6246
 11
-69.2412
 21
-24.9155
  0
LINE
  8
0
 10
-69.2412
 20
-24.9155
 11
-68.3842
 21
-27.1794
  0
LINE
  8
0
 10
-68.3842
 20
-27.1794
 11
-67.4533
 21
-29.4138
  0
LINE
  8
0
 10
-67.4533
 20
-29.4138
 11
-66.4494
 21
-31.6165
  0
LINE
  8
0
 10
-66.4494
 20
-31.6165
 11
-65.3735
 21
-33.7849
  0
LINE
  8
0
 10
-65.3735
 20
-33.7849
 11
-64.227
 21
-35.9168
  0
LINE
  8
0
 10
-64.227
 20
-35.9168
 11
-63.0109
 21
-38.0098
  0
LINE
  8
0
 10
-63.0109
 20
-38.0098
 11
-61.7267
 21
-40.0617
  0
LINE
  8
0
 10
-61.7267
 20
-40.0617
 11
-60.3756
 21
-42.0703
  0
LINE
  8
0
 10
-60.3756
 20
-42.0703
 11
-58.9592
 21
-44.0333
  0
LINE
  8
0
 10
-58.9592
 20
-44.0333
 11
-57.4791
 21
-45.9486
  0
LINE
  8
0
 10
-57.4791
 20
-45.9486
 11
-55.9367
 21
-47.8143
  0
LINE
  8
0
 10
-55.9367
 20
-47.8143
 11
-54.3338
 21
-49.6282
  0
LINE
  8
0
 10
-54.3338
 20
-49.6282
 11
-52.6721
 21
-51.3884
  0
LINE
  8
0
 10
-52.6721
 20
-51.3884
 11
-50.9535
 21
-53.093
  0
LINE
  8
0
 10
-50.9535
 20
-53.093
 11
-49.1797
 21
-54.7401
  0
LINE
  8
0
 10
-49.1797
 20
-54.7401
 11
-47.3526
 21
-56.328
  0
LINE
  8
0
 10
-47.3526
 20
-56.328
 11
-45.4743
 21
-57.855
  0
LINE
  8
0
 10
-45.4743
 20
-57.855
 11
-43.5469
 21
-59.3194
  0
LINE
  8
0
 10
-43.5469
 20
-59.3194
 11
-41.5723
 21
-60.7196
  0
LINE
  8
0
 10
-41.5723
 20
-60.7196
 11
-39.5527
 21
-62.054
  0
LINE
  8
0
 10
-39.5527
 20
-62.054
 11
-37.4903
 21
-63.3214
  0
LINE
  8
0
 10
-37.4903
 20
-63.3214
 11
-35.3874
 21
-64.5202
  0
LINE
  8
0
 10
-35.3874
 20
-64.5202
 11
-33.2462
 21
-65.6492
  0
LINE
  8
0
 10
-33.2462
 20
-65.6492
 11
-31.0689
 21
-66.7071
  0
LINE
  8
0
 10
-31.0689
 20
-66.7071
 11
-28.8581
 21
-67.6929
  0
LINE
  8
0
 10
-28.8581
 20
-67.6929
 11
-26.6161
 21
-68.6054
  0
LINE
  8
0
 10
-26.6161
 20
-68.6054
 11
-24.3452
 21
-69.4437
  0
LINE
  8
0
 10
-24.3452
 20
-69.4437
 11
-22.048
 21
-70.2069
  0
LINE
  8
0
 10
-22.048
 20
-70.2069
 11
-19.7269
 21
-70.8941
  0
LINE
  8
0
 10
-19.7269
 20
-70.8941
 11
-17.3846
 21
-71.5045
  0
LINE
  8
0
 10
-17.3846
 20
-71.5045
 11
-15.0233
 21
-72.0376
  0
LINE
  8
0
 10
-15.0233
 20
-72.0376
 11
-12.6459
 21
-72.4928
  0
LINE
  8
0
 10
-12.6459
 20
-72.4928
 11
-10.2547
 21
-72.8695
  0
LINE
  8
0
 10
-10.2547
 20
-72.8695
 11
-7.85246
 21
-73.1673
  0
LINE
  8
0
 10
-7.85246
 20
-73.1673
 11
-5.44171
 21
-73.386
  0
LINE
  8
0
 10
-5.44171
 20
-73.386
 11
-3.02509
 21
-73.5253
  0
LINE
  8
0
 10
-3.02509
 20
-73.5253
 11
-0.605179
 21
-73.585
  0
LINE
  8
0
 10
-0.605179
 20
-73.585
 11
1.81537
 21
-73.5651
  0
LINE
  8
0
 10
-25.409
 20
-3.89084
 11
-25.9464
 21
-3.79608
  0
LINE
  8
0
 10
-25.9464
 20
-3.79608
 11
-26.4656
 21
-3.6274
  0
LINE
  8
0
 10
-26.4656
 20
-3.6274
 11
-26.9561
 21
-3.38814
  0
LINE
  8
0
 10
-26.9561
 20
-3.38814
 11
-27.4087
 21
-3.08289
  0
LINE
  8
0
 10
-27.4087
 20
-3.08289
 11
-27.8142
 21
-2.71774
  0
LINE
  8
0
 10
-27.8142
 20
-2.71774
 11
-28.1651
 21
-2.29958
  0
LINE
  8
0
 10
-28.1651
 20
-2.29958
 11
-28.4543
 21
-1.83672
  0
LINE
  8
0
 10
-28.4543
 20
-1.83672
 11
-28.6763
 21
-1.33804
  0
LINE
  8
0
 10
-28.6763
 20
-1.33804
 11
-28.8268
 21
-0.813461
  0
LINE
  8
0
 10
-28.8268
 20
-0.813461
 11
-28.9028
 21
-0.272812
  0
LINE
  8
0
 10
-28.9028
 20
-0.272812
 11
-28.9028
 21
0.272812
  0
LINE
  8
0
 10
-28.9028
 20
0.272812
 11
-28.8268
 21
0.813461
  0
LINE
  8
0
 10
-28.8268
 20
0.813461
 11
-28.6763
 21
1.33804
  0
LINE
  8
0
 10
-28.6763
 20
1.33804
 11
-28.4543
 21
1.83672
  0
LINE
  8
0
 10
-28.4543
 20
1.83672
 11
-28.1651
 21
2.29958
  0
LINE
  8
0
 10
-28.1651
 20
2.29958
 11
-27.8142
 21
2.71774
  0
LINE
  8
0
 10
-27.8142
 20
2.71774
 11
-27.4087
 21
3.08289
  0
LINE
  8
0
 10
-27.4087
 20
3.08289
 11
-26.9561
 21
3.38814
  0
LINE
  8
0
 10
-26.9561
 20
3.38814
 11
-26.4656
 21
3.6274
  0
LINE
  8
0
 10
-26.4656
 20
3.6274
 11
-25.9464
 21
3.79608
  0
LINE
  8
0
 10
-25.9464
 20
3.79608
 11
-25.409
 21
3.89084
  0
LINE
  8
0
 10
-25.409
 20
3.89084
 11
-24.8634
 21
3.9099
  0
LINE
  8
0
 10
-24.8634
 20
3.9099
 11
-24.3206
 21
3.85284
  0
LINE
  8
0
 10
-24.3206
 20
3.85284
 11
-23.7911
 21
3.72079
  0
LINE
  8
0
 10
-23.7911
 20
3.72079
 11
-23.2849
 21
3.51631
  0
LINE
  8
0
 10
-23.2849
 20
3.51631
 11
-22.8123
 21
3.24347
  0
LINE
  8
0
 10
-22.8123
 20
3.24347
 11
-22.3821
 21
2.90732
  0
LINE
  8
0
 10
-22.3821
 20
2.90732
 11
-22.003
 21
2.51479
  0
LINE
  8
0
 10
-22.003
 20
2.51479
 11
-21.6822
 21
2.07317
  0
LINE
  8
0
 10
-21.6822
 20
2.07317
 11
-21.426
 21
1.59131
  0
LINE
  8
0
 10
-21.426
 20
1.59131
 11
-21.2393
 21
1.07831
  0
LINE
  8
0
 10
-21.2393
 20
1.07831
 11
-21.1258
 21
0.544449
  0
LINE
  8
0
 10
-21.1258
 20
0.544449
 11
-21.0877
 21
0
  0
LINE
  8
0
 10
-21.0877
 20
0
 11
-21.1258
 21
-0.544449
  0
LINE
  8
0
 10
-21.1258
 20
-0.544449
 11
-21.2393
 21
-1.07831
  0
LINE
  8
0
 10
-21.2393
 20
-1.07831
 11
-21.426
 21
-1.59131
  0
LINE
  8
0
 10
-21.426
 20
-1.59131
 11
-21.6822
 21
-2.07317
  0
LINE
  8
0
 10
-21.6822
 20
-2.07317
 11
-22.003
 21
-2.51479
  0
LINE
  8
0
 10
-22.003
 20
-2.51479
 11
-22.3821
 21
-2.90732
  0
LINE
  8
0
 10
-22.3821
 20
-2.90732
 11
-22.8123
 21
-3.24347
  0
LINE
  8
0
 10
-22.8123
 20
-3.24347
 11
-23.2849
 21
-3.51631
  0
LINE
  8
0
 10
-23.2849
 20
-3.51631
 11
-23.7911
 21
-3.72079
  0
LINE
  8
0
 10
-23.7911
 20
-3.72079
 11
-24.3206
 21
-3.85284
  0
LINE
  8
0
 10
-24.3206
 20
-3.85284
 11
-24.8634
 21
-3.9099
  0
LINE
  8
0
 10
-24.8634
 20
-3.9099
 11
-25.409
 21
-3.89084
  0
LINE
  8
0
 10
24.591
 20
-3.89084
 11
24.0536
 21
-3.79608
  0
LINE
  8
0
 10
24.0536
 20
-3.79608
 11
23.5344
 21
-3.6274
  0
LINE
  8
0
 10
23.5344
 20
-3.6274
 11
23.0439
 21
-3.38814
  0
LINE
  8
0
 10
23.0439
 20
-3.38814
 11
22.5913
 21
-3.08289
  0
LINE
  8
0
 10
22.5913
 20
-3.08289
 11
22.1858
 21
-2.71774
  0
LINE
  8
0
 10
22.1858
 20
-2.71774
 11
21.8349
 21
-2.29958
  0
LINE
  8
0
 10
21.8349
 20
-2.29958
 11
21.5457
 21
-1.83672
  0
LINE
  8
0
 10
21.5457
 20
-1.83672
 11
21.3236
 21
-1.33804
  0
LINE
  8
0
 10
21.3236
 20
-1.33804
 11
21.1732
 21
-0.813461
  0
LINE
  8
0
 10
21.1732
 20
-0.813461
 11
21.0972
 21
-0.272812
  0
LINE
  8
0
 10
21.0972
 20
-0.272812
 11
21.0972
 21
0.272812
  0
LINE
  8
0
 10
21.0972
 20
0.272812
 11
21.1732
 21
0.813461
  0
LINE
  8
0
 10
21.1732
 20
0.813461
 11
21.3236
 21
1.33804
  0
LINE
  8
0
 10
21.3236
 20
1.33804
 11
21.5457
 21
1.83672
  0
LINE
  8
0
 10
21.5457
 20
1.83672
 11
21.8349
 21
2.29958
  0
LINE
  8
0
 10
21.8349
 20
2.29958
 11
22.1858
 21
2.71774
  0
LINE
  8
0
 10
22.1858
 20
2.71774
 11
22.5913
 21
3.08289
  0
LINE
  8
0
 10
22.5913
 20
3.08289
 11
23.0439
 21
3.38814
  0
LINE
  8
0
 10
23.0439
 20
3.38814
 11
23.5344
 21
3.6274
  0
LINE
  8
0
 10
23.5344
 20
3.6274
 11
24.0536
 21
3.79608
  0
LINE
  8
0
 10
24.0536
 20
3.79608
 11
24.591
 21
3.89084
  0
LINE
  8
0
 10
24.591
 20
3.89084
 11
25.1365
 21
3.9099
  0
LINE
  8
0
 10
25.1365
 20
3.9099
 11
25.6794
 21
3.85284
  0
LINE
  8
0
 10
25.6794
 20
3.85284
 11
26.2089
 21
3.72079
  0
LINE
  8
0
 10
26.2089
 20
3.72079
 11
26.7151
 21
3.51631
  0
LINE
  8
0
 10
26.7151
 20
3.51631
 11
27.1877
 21
3.24347
  0
LINE
  8
0
 10
27.1877
 20
3.24347
 11
27.6178
 21
2.90736
  0
LINE
  8
0
 10
27.6178
 20
2.90736
 11
27.997
 21
2.51472
  0
LINE
  8
0
 10
27.997
 20
2.51472
 11
28.3178
 21
2.07317
  0
LINE
  8
0
 10
28.3178
 20
2.07317
 11
28.574
 21
1.59131
  0
LINE
  8
0
 10
28.574
 20
1.59131
 11
28.7607
 21
1.07831
  0
LINE
  8
0
 10
28.7607
 20
1.07831
 11
28.8742
 21
0.544449
  0
LINE
  8
0
 10
28.8742
 20
0.544449
 11
28.9123
 21
0
  0
LINE
  8
0
 10
28.9123
 20
0
 11
28.8742
 21
-0.544449
  0
LINE
  8
0
 10
28.8742
 20
-0.544449
 11
28.7607
 21
-1.07831
  0
LINE
  8
0
 10
28.7607
 20
-1.07831
 11
28.574
 21
-1.59131
  0
LINE
  8
0
 10
28.574
 20
-1.59131
 11
28.3178
 21
-2.07317
  0
LINE
  8
0
 10
28.3178
 20
-2.07317
 11
27.997
 21
-2.51472
  0
LINE
  8
0
 10
27.997
 20
-2.51472
 11
27.6178
 21
-2.90736
  0
LINE
  8
0
 10
27.6178
 20
-2.90736
 11
27.1877
 21
-3.24347
  0
LINE
  8
0
 10
27.1877
 20
-3.24347
 11
26.7151
 21
-3.51631
  0
LINE
  8
0
 10
26.7151
 20
-3.51631
 11
26.2089
 21
-3.72079
  0
LINE
  8
0
 10
26.2089
 20
-3.72079
 11
25.6794
 21
-3.85284
  0
LINE
  8
0
 10
25.6794
 20
-3.85284
 11
25.1365
 21
-3.9099
  0
LINE
  8
0
 10
25.1365
 20
-3.9099
 11
24.591
 21
-3.89084
  0
LINE
  8
0
 10
-0.651581
 20
-3.52759
 11
-1.1582
 21
-3.39514
  0
LINE
  8
0
 10
-1.1582
 20
-3.39514
 11
-1.64029
 21
-3.19028
  0
LINE
  8
0
 10
-1.64029
 20
-3.19028
 11
-2.08727
 21
-2.91748
  0
LINE
  8
0
 10
-2.08727
 20
-2.91748
 11
-2.48981
 21
-2.5825
  0
LINE
  8
0
 10
-2.48981
 20
-2.5825
 11
-2.83934
 21
-2.19238
  0
LINE
  8
0
 10
-2.83934
 20
-2.19238
 11
-3.12825
 21
-1.75569
  0
LINE
  8
0
 10
-3.12825
 20
-1.75569
 11
-3.35056
 21
-1.28148
  0
LINE
  8
0
 10
-3.35056
 20
-1.28148
 11
-3.50143
 21
-0.779968
  0
LINE
  8
0
 10
-3.50143
 20
-0.779968
 11
-3.5777
 21
-0.261826
  0
LINE
  8
0
 10
-3.5777
 20
-0.261826
 11
-3.5777
 21
0.261826
  0
LINE
  8
0
 10
-3.5777
 20
0.261826
 11
-3.50143
 21
0.779968
  0
LINE
  8
0
 10
-3.50143
 20
0.779968
 11
-3.35056
 21
1.28148
  0
LINE
  8
0
 10
-3.35056
 20
1.28148
 11
-3.12825
 21
1.75569
  0
LINE
  8
0
 10
-3.12825
 20
1.75569
 11
-2.83934
 21
2.19238
  0
LINE
  8
0
 10
-2.83934
 20
2.19238
 11
-2.48981
 21
2.5825
  0
LINE
  8
0
 10
-2.48981
 20
2.5825
 11
-2.08727
 21
2.91748
  0
LINE
  8
0
 10
-2.08727
 20
2.91748
 11
-1.64029
 21
3.19028
  0
LINE
  8
0
 10
-1.64029
 20
3.19028
 11
-1.1582
 21
3.39514
  0
LINE
  8
0
 10
-1.1582
 20
3.39514
 11
-0.651581
 21
3.52759
  0
LINE
  8
0
 10
-0.651581
 20
3.52759
 11
-0.131058
 21
3.58487
  0
LINE
  8
0
 10
-0.131058
 20
3.58487
 11
0.392395
 21
3.56572
  0
LINE
  8
0
 10
0.392395
 20
3.56572
 11
0.907333
 21
3.47061
  0
LINE
  8
0
 10
0.907333
 20
3.47061
 11
1.40297
 21
3.30153
  0
LINE
  8
0
 10
1.40297
 20
3.30153
 11
1.86871
 21
3.06207
  0
LINE
  8
0
 10
1.86871
 20
3.06207
 11
2.29472
 21
2.75728
  0
LINE
  8
0
 10
2.29472
 20
2.75728
 11
2.67165
 21
2.39389
  0
LINE
  8
0
 10
2.67165
 20
2.39389
 11
2.99179
 21
1.97929
  0
LINE
  8
0
 10
2.99179
 20
1.97929
 11
3.24806
 21
1.52264
  0
LINE
  8
0
 10
3.24806
 20
1.52264
 11
3.43518
 21
1.03345
  0
LINE
  8
0
 10
3.43518
 20
1.03345
 11
3.54904
 21
0.522308
  0
LINE
  8
0
 10
3.54904
 20
0.522308
 11
3.58725
 21
0
  0
LINE
  8
0
 10
3.58725
 20
0
 11
3.54904
 21
-0.522308
  0
LINE
  8
0
 10
3.54904
 20
-0.522308
 11
3.43518
 21
-1.03345
  0
LINE
  8
0
 10
3.43518
 20
-1.03345
 11
3.24806
 21
-1.52264
  0
LINE
  8
0
 10
3.24806
 20
-1.52264
 11
2.99179
 21
-1.97929
  0
LINE
  8
0
 10
2.99179
 20
-1.97929
 11
2.67165
 21
-2.39389
  0
LINE
  8
0
 10
2.67165
 20
-2.39389
 11
2.29472
 21
-2.75728
  0
LINE
  8
0
 10
2.29472
 20
-2.75728
 11
1.86871
 21
-3.06207
  0
LINE
  8
0
 10
1.86871
 20
-3.06207
 11
1.40297
 21
-3.30153
  0
LINE
  8
0
 10
1.40297
 20
-3.30153
 11
0.907333
 21
-3.47061
  0
LINE
  8
0
 10
0.907333
 20
-3.47061
 11
0.392395
 21
-3.56572
  0
LINE
  8
0
 10
0.392395
 20
-3.56572
 11
-0.131058
 21
-3.58487
  0
LINE
  8
0
 10
-0.131058
 20
-3.58487
 11
-0.651581
 21
-3.52759
  0
ENDSEC
  0
SECTION
  2
OBJECTS
  0
DICTIONARY
  0
ENDSEC
  0
EOF
