  0
SECTION
  2
BLOCKS
  0
ENDSEC
  0
SECTION
  2
ENTITIES
  0
LINE
  8
0
 10
1.87334
 20
-75.9144
 11
4.36919
 21
-75.8117
  0
LINE
  8
0
 10
4.36919
 20
-75.8117
 11
6.86029
 21
-75.627
  0
LINE
  8
0
 10
6.86029
 20
-75.627
 11
9.34398
 21
-75.3604
  0
LINE
  8
0
 10
9.34398
 20
-75.3604
 11
11.8176
 21
-75.0123
  0
LINE
  8
0
 10
11.8176
 20
-75.0123
 11
14.2783
 21
-74.5831
  0
LINE
  8
0
 10
14.2783
 20
-74.5831
 11
16.7237
 21
-74.0731
  0
LINE
  8
0
 10
16.7237
 20
-74.0731
 11
19.1509
 21
-73.483
  0
LINE
  8
0
 10
19.1509
 20
-73.483
 11
21.5574
 21
-72.8133
  0
LINE
  8
0
 10
21.5574
 20
-72.8133
 11
23.9406
 21
-72.0649
  0
LINE
  8
0
 10
23.9406
 20
-72.0649
 11
26.2979
 21
-71.2385
  0
LINE
  8
0
 10
26.2979
 20
-71.2385
 11
28.6267
 21
-70.335
  0
LINE
  8
0
 10
28.6267
 20
-70.335
 11
30.9246
 21
-69.3554
  0
LINE
  8
0
 10
30.9246
 20
-69.3554
 11
33.189
 21
-68.3008
  0
LINE
  8
0
 10
33.189
 20
-68.3008
 11
35.4175
 21
-67.1722
  0
LINE
  8
0
 10
35.4175
 20
-67.1722
 11
37.6076
 21
-65.971
  0
LINE
  8
0
 10
37.6076
 20
-65.971
 11
39.7571
 21
-64.6984
  0
LINE
  8
0
 10
39.7571
 20
-64.6984
 11
41.8635
 21
-63.3557
  0
LINE
  8
0
 10
41.8635
 20
-63.3557
 11
43.9247
 21
-61.9445
  0
LINE
  8
0
 10
43.9247
 20
-61.9445
 11
45.9383
 21
-60.4664
  0
LINE
  8
0
 10
45.9383
 20
-60.4664
 11
47.9022
 21
-58.9227
  0
LINE
  8
0
 10
47.9022
 20
-58.9227
 11
49.8142
 21
-57.3153
  0
LINE
  8
0
 10
49.8142
 20
-57.3153
 11
51.6724
 21
-55.6459
  0
LINE
  8
0
 10
51.6724
 20
-55.6459
 11
53.4747
 21
-53.9163
  0
LINE
  8
0
 10
53.4747
 20
-53.9163
 11
55.2191
 21
-52.1283
  0
LINE
  8
0
 10
55.2191
 20
-52.1283
 11
56.9037
 21
-50.2839
  0
LINE
  8
0
 10
56.9037
 20
-50.2839
 11
58.5268
 21
-48.3851
  0
LINE
  8
0
 10
58.5268
 20
-48.3851
 11
60.0865
 21
-46.434
  0
LINE
  8
0
 10
60.0865
 20
-46.434
 11
61.5812
 21
-44.4326
  0
LINE
  8
0
 10
61.5812
 20
-44.4326
 11
63.0093
 21
-42.3831
  0
LINE
  8
0
 10
63.0093
 20
-42.3831
 11
64.3692
 21
-40.2878
  0
LINE
  8
0
 10
64.3692
 20
-40.2878
 11
65.6595
 21
-38.1489
  0
LINE
  8
0
 10
65.6595
 20
-38.1489
 11
66.8787
 21
-35.9687
  0
LINE
  8
0
 10
66.8787
 20
-35.9687
 11
68.0255
 21
-33.7496
  0
LINE
  8
0
 10
68.0255
 20
-33.7496
 11
69.0988
 21
-31.4939
  0
LINE
  8
0
 10
69.0988
 20
-31.4939
 11
70.0972
 21
-29.2042
  0
LINE
  8
0
 10
70.0972
 20
-29.2042
 11
71.0198
 21
-26.8829
  0
LINE
  8
0
 10
71.0198
 20
-26.8829
 11
71.8656
 21
-24.5325
  0
LINE
  8
0
 10
71.8656
 20
-24.5325
 11
72.6336
 21
-22.1555
  0
LINE
  8
0
 10
72.6336
 20
-22.1555
 11
73.323
 21
-19.7546
  0
LINE
  8
0
 10
73.323
 20
-19.7546
 11
73.9331
 21
-17.3323
  0
LINE
  8
0
 10
73.9331
 20
-17.3323
 11
74.4631
 21
-14.8912
  0
LINE
  8
0
 10
74.4631
 20
-14.8912
 11
74.9126
 21
-12.4341
  0
LINE
  8
0
 10
74.9126
 20
-12.4341
 11
75.2811
 21
-9.96341
  0
LINE
  8
0
 10
75.2811
 20
-9.96341
 11
75.568
 21
-7.48201
  0
LINE
  8
0
 10
75.568
 20
-7.48201
 11
75.7732
 21
-4.99251
  0
LINE
  8
0
 10
75.7732
 20
-4.99251
 11
75.8964
 21
-2.4976
  0
LINE
  8
0
 10
75.8964
 20
-2.4976
 11
75.9375
 21
0
  0
LINE
  8
0
 10
75.9375
 20
0
 11
75.8964
 21
2.4976
  0
LINE
  8
0
 10
75.8964
 20
2.4976
 11
75.7732
 21
4.99251
  0
LINE
  8
0
 10
75.7732
 20
4.99251
 11
75.568
 21
7.48201
  0
LINE
  8
0
 10
75.568
 20
7.48201
 11
75.2811
 21
9.96341
  0
LINE
  8
0
 10
75.2811
 20
9.96341
 11
74.9126
 21
12.4341
  0
LINE
  8
0
 10
74.9126
 20
12.4341
 11
74.4631
 21
14.8912
  0
LINE
  8
0
 10
74.4631
 20
14.8912
 11
73.9331
 21
17.3323
  0
LINE
  8
0
 10
73.9331
 20
17.3323
 11
73.323
 21
19.7546
  0
LINE
  8
0
 10
73.323
 20
19.7546
 11
72.6336
 21
22.1555
  0
LINE
  8
0
 10
72.6336
 20
22.1555
 11
71.8656
 21
24.5325
  0
LINE
  8
0
 10
71.8656
 20
24.5325
 11
71.0198
 21
26.8829
  0
LINE
  8
0
 10
71.0198
 20
26.8829
 11
70.0972
 21
29.2042
  0
LINE
  8
0
 10
70.0972
 20
29.2042
 11
69.0988
 21
31.4939
  0
LINE
  8
0
 10
69.0988
 20
31.4939
 11
68.0255
 21
33.7496
  0
LINE
  8
0
 10
68.0255
 20
33.7496
 11
66.8787
 21
35.9687
  0
LINE
  8
0
 10
66.8787
 20
35.9687
 11
65.6595
 21
38.1489
  0
LINE
  8
0
 10
65.6595
 20
38.1489
 11
64.3692
 21
40.2878
  0
LINE
  8
0
 10
64.3692
 20
40.2878
 11
63.0093
 21
42.3831
  0
LINE
  8
0
 10
63.0093
 20
42.3831
 11
61.5812
 21
44.4326
  0
LINE
  8
0
 10
61.5812
 20
44.4326
 11
60.0865
 21
46.434
  0
LINE
  8
0
 10
60.0865
 20
46.434
 11
58.5268
 21
48.3851
  0
LINE
  8
0
 10
58.5268
 20
48.3851
 11
56.9037
 21
50.2839
  0
LINE
  8
0
 10
56.9037
 20
50.2839
 11
55.2191
 21
52.1283
  0
LINE
  8
0
 10
55.2191
 20
52.1283
 11
53.4747
 21
53.9163
  0
LINE
  8
0
 10
53.4747
 20
53.9163
 11
51.6724
 21
55.6459
  0
LINE
  8
0
 10
51.6724
 20
55.6459
 11
49.8142
 21
57.3153
  0
LINE
  8
0
 10
49.8142
 20
57.3153
 11
47.9022
 21
58.9227
  0
LINE
  8
0
 10
47.9022
 20
58.9227
 11
45.9383
 21
60.4664
  0
LINE
  8
0
 10
45.9383
 20
60.4664
 11
43.9247
 21
61.9445
  0
LINE
  8
0
 10
43.9247
 20
61.9445
 11
41.8635
 21
63.3557
  0
LINE
  8
0
 10
41.8635
 20
63.3557
 11
39.7571
 21
64.6984
  0
LINE
  8
0
 10
39.7571
 20
64.6984
 11
37.6076
 21
65.971
  0
LINE
  8
0
 10
37.6076
 20
65.971
 11
35.4175
 21
67.1722
  0
LINE
  8
0
 10
35.4175
 20
67.1722
 11
33.189
 21
68.3008
  0
LINE
  8
0
 10
33.189
 20
68.3008
 11
30.9246
 21
69.3554
  0
LINE
  8
0
 10
30.9246
 20
69.3554
 11
28.6267
 21
70.335
  0
LINE
  8
0
 10
28.6267
 20
70.335
 11
26.2979
 21
71.2385
  0
LINE
  8
0
 10
26.2979
 20
71.2385
 11
23.9406
 21
72.0649
  0
LINE
  8
0
 10
23.9406
 20
72.0649
 11
21.5574
 21
72.8133
  0
LINE
  8
0
 10
21.5574
 20
72.8133
 11
19.1509
 21
73.483
  0
LINE
  8
0
 10
19.1509
 20
73.483
 11
16.7237
 21
74.0731
  0
LINE
  8
0
 10
16.7237
 20
74.0731
 11
14.2783
 21
74.5831
  0
LINE
  8
0
 10
14.2783
 20
74.5831
 11
11.8176
 21
75.0123
  0
LINE
  8
0
 10
11.8176
 20
75.0123
 11
9.34398
 21
75.3604
  0
LINE
  8
0
 10
9.34398
 20
75.3604
 11
6.86029
 21
75.627
  0
LINE
  8
0
 10
6.86029
 20
75.627
 11
4.36919
 21
75.8117
  0
LINE
  8
0
 10
4.36919
 20
75.8117
 11
1.87334
 21
75.9144
  0
LINE
  8
0
 10
1.87334
 20
75.9144
 11
-0.624496
 21
75.9349
  0
LINE
  8
0
 10
-0.624496
 20
75.9349
 11
-3.12169
 21
75.8733
  0
LINE
  8
0
 10
-3.12169
 20
75.8733
 11
-5.61549
 21
75.7296
  0
LINE
  8
0
 10
-5.61549
 20
75.7296
 11
-8.10323
 21
75.5039
  0
LINE
  8
0
 10
-8.10323
 20
75.5039
 11
-10.5822
 21
75.1965
  0
LINE
  8
0
 10
-10.5822
 20
75.1965
 11
-13.0497
 21
74.8078
  0
LINE
  8
0
 10
-13.0497
 20
74.8078
 11
-15.5031
 21
74.3381
  0
LINE
  8
0
 10
-15.5031
 20
74.3381
 11
-17.9397
 21
73.788
  0
LINE
  8
0
 10
-17.9397
 20
73.788
 11
-20.3569
 21
73.1581
  0
LINE
  8
0
 10
-20.3569
 20
73.1581
 11
-22.7521
 21
72.4489
  0
LINE
  8
0
 10
-22.7521
 20
72.4489
 11
-25.1227
 21
71.6614
  0
LINE
  8
0
 10
-25.1227
 20
71.6614
 11
-27.466
 21
70.7963
  0
LINE
  8
0
 10
-27.466
 20
70.7963
 11
-29.7797
 21
69.8547
  0
LINE
  8
0
 10
-29.7797
 20
69.8547
 11
-32.0611
 21
68.8374
  0
LINE
  8
0
 10
-32.0611
 20
68.8374
 11
-34.3079
 21
67.7457
  0
LINE
  8
0
 10
-34.3079
 20
67.7457
 11
-36.5175
 21
66.5806
  0
LINE
  8
0
 10
-36.5175
 20
66.5806
 11
-38.6876
 21
65.3435
  0
LINE
  8
0
 10
-38.6876
 20
65.3435
 11
-40.8158
 21
64.0357
  0
LINE
  8
0
 10
-40.8158
 20
64.0357
 11
-42.8999
 21
62.6586
  0
LINE
  8
0
 10
-42.8999
 20
62.6586
 11
-44.9375
 21
61.2137
  0
LINE
  8
0
 10
-44.9375
 20
61.2137
 11
-46.9266
 21
59.7026
  0
LINE
  8
0
 10
-46.9266
 20
59.7026
 11
-48.8648
 21
58.1269
  0
LINE
  8
0
 10
-48.8648
 20
58.1269
 11
-50.7502
 21
56.4882
  0
LINE
  8
0
 10
-50.7502
 20
56.4882
 11
-52.5807
 21
54.7885
  0
LINE
  8
0
 10
-52.5807
 20
54.7885
 11
-54.3542
 21
53.0294
  0
LINE
  8
0
 10
-54.3542
 20
53.0294
 11
-56.069
 21
51.213
  0
LINE
  8
0
 10
-56.069
 20
51.213
 11
-57.7231
 21
49.3412
  0
LINE
  8
0
 10
-57.7231
 20
49.3412
 11
-59.3147
 21
47.416
  0
LINE
  8
0
 10
-59.3147
 20
47.416
 11
-60.8421
 21
45.4395
  0
LINE
  8
0
 10
-60.8421
 20
45.4395
 11
-62.3037
 21
43.4137
  0
LINE
  8
0
 10
-62.3037
 20
43.4137
 11
-63.6979
 21
41.3411
  0
LINE
  8
0
 10
-63.6979
 20
41.3411
 11
-65.0231
 21
39.2236
  0
LINE
  8
0
 10
-65.0231
 20
39.2236
 11
-66.278
 21
37.0638
  0
LINE
  8
0
 10
-66.278
 20
37.0638
 11
-67.4612
 21
34.8638
  0
LINE
  8
0
 10
-67.4612
 20
34.8638
 11
-68.5714
 21
32.6262
  0
LINE
  8
0
 10
-68.5714
 20
32.6262
 11
-69.6074
 21
30.3532
  0
LINE
  8
0
 10
-69.6074
 20
30.3532
 11
-70.5681
 21
28.0473
  0
LINE
  8
0
 10
-70.5681
 20
28.0473
 11
-71.4524
 21
25.7112
  0
LINE
  8
0
 10
-71.4524
 20
25.7112
 11
-72.2594
 21
23.3472
  0
LINE
  8
0
 10
-72.2594
 20
23.3472
 11
-72.9882
 21
20.9579
  0
LINE
  8
0
 10
-72.9882
 20
20.9579
 11
-73.638
 21
18.5459
  0
LINE
  8
0
 10
-73.638
 20
18.5459
 11
-74.2081
 21
16.1139
  0
LINE
  8
0
 10
-74.2081
 20
16.1139
 11
-74.698
 21
13.6645
  0
LINE
  8
0
 10
-74.698
 20
13.6645
 11
-75.107
 21
11.2003
  0
LINE
  8
0
 10
-75.107
 20
11.2003
 11
-75.4347
 21
8.72391
  0
LINE
  8
0
 10
-75.4347
 20
8.72391
 11
-75.6808
 21
6.2381
  0
LINE
  8
0
 10
-75.6808
 20
6.2381
 11
-75.8451
 21
3.74556
  0
LINE
  8
0
 10
-75.8451
 20
3.74556
 11
-75.9272
 21
1.24896
  0
LINE
  8
0
 10
-75.9272
 20
1.24896
 11
-75.9272
 21
-1.24896
  0
LINE
  8
0
 10
-75.9272
 20
-1.24896
 11
-75.8451
 21
-3.74556
  0
LINE
  8
0
 10
-75.8451
 20
-3.74556
 11
-75.6808
 21
-6.2381
  0
LINE
  8
0
 10
-75.6808
 20
-6.2381
 11
-75.4347
 21
-8.72391
  0
LINE
  8
0
 10
-75.4347
 20
-8.72391
 11
-75.107
 21
-11.2003
  0
LINE
  8
0
 10
-75.107
 20
-11.2003
 11
-74.698
 21
-13.6645
  0
LINE
  8
0
 10
-74.698
 20
-13.6645
 11
-74.2081
 21
-16.1139
  0
LINE
  8
0
 10
-74.2081
 20
-16.1139
 11
-73.638
 21
-18.5459
  0
LINE
  8
0
 10
-73.638
 20
-18.5459
 11
-72.9882
 21
-20.9579
  0
LINE
  8
0
 10
-72.9882
 20
-20.9579
 11
-72.2594
 21
-23.3472
  0
LINE
  8
0
 10
-72.2594
 20
-23.3472
 11
-71.4524
 21
-25.7112
  0
LINE
  8
0
 10
-71.4524
 20
-25.7112
 11
-70.5681
 21
-28.0473
  0
LINE
  8
0
 10
-70.5681
 20
-28.0473
 11
-69.6074
 21
-30.3532
  0
LINE
  8
0
 10
-69.6074
 20
-30.3532
 11
-68.5714
 21
-32.6262
  0
LINE
  8
0
 10
-68.5714
 20
-32.6262
 11
-67.4612
 21
-34.8638
  0
LINE
  8
0
 10
-67.4612
 20
-34.8638
 11
-66.278
 21
-37.0638
  0
LINE
  8
0
 10
-66.278
 20
-37.0638
 11
-65.0231
 21
-39.2236
  0
LINE
  8
0
 10
-65.0231
 20
-39.2236
 11
-63.6979
 21
-41.3411
  0
LINE
  8
0
 10
-63.6979
 20
-41.3411
 11
-62.3037
 21
-43.4137
  0
LINE
  8
0
 10
-62.3037
 20
-43.4137
 11
-60.8421
 21
-45.4395
  0
LINE
  8
0
 10
-60.8421
 20
-45.4395
 11
-59.3147
 21
-47.416
  0
LINE
  8
0
 10
-59.3147
 20
-47.416
 11
-57.7231
 21
-49.3412
  0
LINE
  8
0
 10
-57.7231
 20
-49.3412
 11
-56.069
 21
-51.213
  0
LINE
  8
0
 10
-56.069
 20
-51.213
 11
-54.3542
 21
-53.0294
  0
LINE
  8
0
 10
-54.3542
 20
-53.0294
 11
-52.5807
 21
-54.7885
  0
LINE
  8
0
 10
-52.5807
 20
-54.7885
 11
-50.7502
 21
-56.4882
  0
LINE
  8
0
 10
-50.7502
 20
-56.4882
 11
-48.8648
 21
-58.1269
  0
LINE
  8
0
 10
-48.8648
 20
-58.1269
 11
-46.9266
 21
-59.7026
  0
LINE
  8
0
 10
-46.9266
 20
-59.7026
 11
-44.9375
 21
-61.2137
  0
LINE
  8
0
 10
-44.9375
 20
-61.2137
 11
-42.8999
 21
-62.6586
  0
LINE
  8
0
 10
-42.8999
 20
-62.6586
 11
-40.8158
 21
-64.0357
  0
LINE
  8
0
 10
-40.8158
 20
-64.0357
 11
-38.6876
 21
-65.3435
  0
LINE
  8
0
 10
-38.6876
 20
-65.3435
 11
-36.5175
 21
-66.5806
  0
LINE
  8
0
 10
-36.5175
 20
-66.5806
 11
-34.3079
 21
-67.7457
  0
LINE
  8
0
 10
-34.3079
 20
-67.7457
 11
-32.0611
 21
-68.8374
  0
LINE
  8
0
 10
-32.0611
 20
-68.8374
 11
-29.7797
 21
-69.8547
  0
LINE
  8
0
 10
-29.7797
 20
-69.8547
 11
-27.466
 21
-70.7963
  0
LINE
  8
0
 10
-27.466
 20
-70.7963
 11
-25.1227
 21
-71.6614
  0
LINE
  8
0
 10
-25.1227
 20
-71.6614
 11
-22.7521
 21
-72.4489
  0
LINE
  8
0
 10
-22.7521
 20
-72.4489
 11
-20.3569
 21
-73.1581
  0
LINE
  8
0
 10
-20.3569
 20
-73.1581
 11
-17.9397
 21
-73.788
  0
LINE
  8
0
 10
-17.9397
 20
-73.788
 11
-15.5031
 21
-74.3381
  0
LINE
  8
0
 10
-15.5031
 20
-74.3381
 11
-13.0497
 21
-74.8078
  0
LINE
  8
0
 10
-13.0497
 20
-74.8078
 11
-10.5822
 21
-75.1965
  0
LINE
  8
0
 10
-10.5822
 20
-75.1965
 11
-8.10323
 21
-75.5039
  0
LINE
  8
0
 10
-8.10323
 20
-75.5039
 11
-5.61549
 21
-75.7296
  0
LINE
  8
0
 10
-5.61549
 20
-75.7296
 11
-3.12169
 21
-75.8733
  0
LINE
  8
0
 10
-3.12169
 20
-75.8733
 11
-0.624496
 21
-75.9349
  0
LINE
  8
0
 10
-0.624496
 20
-75.9349
 11
1.87334
 21
-75.9144
  0
LINE
  8
0
 10
-25.5568
 20
-3.87244
 11
-26.1022
 21
-3.75381
  0
LINE
  8
0
 10
-26.1022
 20
-3.75381
 11
-26.6252
 21
-3.55872
  0
LINE
  8
0
 10
-26.6252
 20
-3.55872
 11
-27.1151
 21
-3.29121
  0
LINE
  8
0
 10
-27.1151
 20
-3.29121
 11
-27.562
 21
-2.95671
  0
LINE
  8
0
 10
-27.562
 20
-2.95671
 11
-27.9567
 21
-2.56197
  0
LINE
  8
0
 10
-27.9567
 20
-2.56197
 11
-28.2912
 21
-2.11511
  0
LINE
  8
0
 10
-28.2912
 20
-2.11511
 11
-28.5587
 21
-1.62523
  0
LINE
  8
0
 10
-28.5587
 20
-1.62523
 11
-28.7538
 21
-1.10216
  0
LINE
  8
0
 10
-28.7538
 20
-1.10216
 11
-28.8724
 21
-0.556824
  0
LINE
  8
0
 10
-28.8724
 20
-0.556824
 11
-28.9123
 21
0
  0
LINE
  8
0
 10
-28.9123
 20
0
 11
-28.8724
 21
0.556824
  0
LINE
  8
0
 10
-28.8724
 20
0.556824
 11
-28.7538
 21
1.10216
  0
LINE
  8
0
 10
-28.7538
 20
1.10216
 11
-28.5587
 21
1.62523
  0
LINE
  8
0
 10
-28.5587
 20
1.62523
 11
-28.2912
 21
2.11511
  0
LINE
  8
0
 10
-28.2912
 20
2.11511
 11
-27.9567
 21
2.56197
  0
LINE
  8
0
 10
-27.9567
 20
2.56197
 11
-27.562
 21
2.95671
  0
LINE
  8
0
 10
-27.562
 20
2.95671
 11
-27.1151
 21
3.29121
  0
LINE
  8
0
 10
-27.1151
 20
3.29121
 11
-26.6252
 21
3.55872
  0
LINE
  8
0
 10
-26.6252
 20
3.55872
 11
-26.1022
 21
3.75381
  0
LINE
  8
0
 10
-26.1022
 20
3.75381
 11
-25.5568
 21
3.87244
  0
LINE
  8
0
 10
-25.5568
 20
3.87244
 11
-25
 21
3.91228
  0
LINE
  8
0
 10
-25
 20
3.91228
 11
-24.4432
 21
3.87244
  0
LINE
  8
0
 10
-24.4432
 20
3.87244
 11
-23.8978
 21
3.75381
  0
LINE
  8
0
 10
-23.8978
 20
3.75381
 11
-23.3748
 21
3.55872
  0
LINE
  8
0
 10
-23.3748
 20
3.55872
 11
-22.8849
 21
3.29121
  0
LINE
  8
0
 10
-22.8849
 20
3.29121
 11
-22.438
 21
2.95671
  0
LINE
  8
0
 10
-22.438
 20
2.95671
 11
-22.0433
 21
2.56197
  0
LINE
  8
0
 10
-22.0433
 20
2.56197
 11
-21.7088
 21
2.11511
  0
LINE
  8
0
 10
-21.7088
 20
2.11511
 11
-21.4413
 21
1.62523
  0
LINE
  8
0
 10
-21.4413
 20
1.62523
 11
-21.2462
 21
1.10216
  0
LINE
  8
0
 10
-21.2462
 20
1.10216
 11
-21.1275
 21
0.556824
  0
LINE
  8
0
 10
-21.1275
 20
0.556824
 11
-21.0877
 21
0
  0
LINE
  8
0
 10
-21.0877
 20
0
 11
-21.1275
 21
-0.556824
  0
LINE
  8
0
 10
-21.1275
 20
-0.556824
 11
-21.2462
 21
-1.10216
  0
LINE
  8
0
 10
-21.2462
 20
-1.10216
 11
-21.4413
 21
-1.62523
  0
LINE
  8
0
 10
-21.4413
 20
-1.62523
 11
-21.7088
 21
-2.11511
  0
LINE
  8
0
 10
-21.7088
 20
-2.11511
 11
-22.0433
 21
-2.56197
  0
LINE
  8
0
 10
-22.0433
 20
-2.56197
 11
-22.438
 21
-2.95671
  0
LINE
  8
0
 10
-22.438
 20
-2.95671
 11
-22.8849
 21
-3.29121
  0
LINE
  8
0
 10
-22.8849
 20
-3.29121
 11
-23.3748
 21
-3.55872
  0
LINE
  8
0
 10
-23.3748
 20
-3.55872
 11
-23.8978
 21
-3.75381
  0
LINE
  8
0
 10
-23.8978
 20
-3.75381
 11
-24.4432
 21
-3.87244
  0
LINE
  8
0
 10
-24.4432
 20
-3.87244
 11
-25
 21
-3.91228
  0
LINE
  8
0
 10
-25
 20
-3.91228
 11
-25.5568
 21
-3.87244
  0
LINE
  8
0
 10
24.4432
 20
-3.87244
 11
23.8978
 21
-3.75381
  0
LINE
  8
0
 10
23.8978
 20
-3.75381
 11
23.3748
 21
-3.55872
  0
LINE
  8
0
 10
23.3748
 20
-3.55872
 11
22.8849
 21
-3.29121
  0
LINE
  8
0
 10
22.8849
 20
-3.29121
 11
22.438
 21
-2.95671
  0
LINE
  8
0
 10
22.438
 20
-2.95671
 11
22.0433
 21
-2.56197
  0
LINE
  8
0
 10
22.0433
 20
-2.56197
 11
21.7088
 21
-2.11511
  0
LINE
  8
0
 10
21.7088
 20
-2.11511
 11
21.4413
 21
-1.62523
  0
LINE
  8
0
 10
21.4413
 20
-1.62523
 11
21.2462
 21
-1.10216
  0
LINE
  8
0
 10
21.2462
 20
-1.10216
 11
21.1275
 21
-0.556824
  0
LINE
  8
0
 10
21.1275
 20
-0.556824
 11
21.0877
 21
0
  0
LINE
  8
0
 10
21.0877
 20
0
 11
21.1275
 21
0.556824
  0
LINE
  8
0
 10
21.1275
 20
0.556824
 11
21.2462
 21
1.10216
  0
LINE
  8
0
 10
21.2462
 20
1.10216
 11
21.4413
 21
1.62523
  0
LINE
  8
0
 10
21.4413
 20
1.62523
 11
21.7088
 21
2.11511
  0
LINE
  8
0
 10
21.7088
 20
2.11511
 11
22.0433
 21
2.56197
  0
LINE
  8
0
 10
22.0433
 20
2.56197
 11
22.438
 21
2.95671
  0
LINE
  8
0
 10
22.438
 20
2.95671
 11
22.8849
 21
3.29121
  0
LINE
  8
0
 10
22.8849
 20
3.29121
 11
23.3748
 21
3.55872
  0
LINE
  8
0
 10
23.3748
 20
3.55872
 11
23.8978
 21
3.75381
  0
LINE
  8
0
 10
23.8978
 20
3.75381
 11
24.4432
 21
3.87244
  0
LINE
  8
0
 10
24.4432
 20
3.87244
 11
25
 21
3.91228
  0
LINE
  8
0
 10
25
 20
3.91228
 11
25.5568
 21
3.87244
  0
LINE
  8
0
 10
25.5568
 20
3.87244
 11
26.1022
 21
3.75381
  0
LINE
  8
0
 10
26.1022
 20
3.75381
 11
26.6252
 21
3.55872
  0
LINE
  8
0
 10
26.6252
 20
3.55872
 11
27.1151
 21
3.29121
  0
LINE
  8
0
 10
27.1151
 20
3.29121
 11
27.562
 21
2.95671
  0
LINE
  8
0
 10
27.562
 20
2.95671
 11
27.9567
 21
2.56197
  0
LINE
  8
0
 10
27.9567
 20
2.56197
 11
28.2912
 21
2.11511
  0
LINE
  8
0
 10
28.2912
 20
2.11511
 11
28.5587
 21
1.62523
  0
LINE
  8
0
 10
28.5587
 20
1.62523
 11
28.7538
 21
1.10216
  0
LINE
  8
0
 10
28.7538
 20
1.10216
 11
28.8724
 21
0.556824
  0
LINE
  8
0
 10
28.8724
 20
0.556824
 11
28.9123
 21
0
  0
LINE
  8
0
 10
28.9123
 20
0
 11
28.8724
 21
-0.556824
  0
LINE
  8
0
 10
28.8724
 20
-0.556824
 11
28.7538
 21
-1.10216
  0
LINE
  8
0
 10
28.7538
 20
-1.10216
 11
28.5587
 21
-1.62523
  0
LINE
  8
0
 10
28.5587
 20
-1.62523
 11
28.2912
 21
-2.11511
  0
LINE
  8
0
 10
28.2912
 20
-2.11511
 11
27.9567
 21
-2.56197
  0
LINE
  8
0
 10
27.9567
 20
-2.56197
 11
27.562
 21
-2.95671
  0
LINE
  8
0
 10
27.562
 20
-2.95671
 11
27.1151
 21
-3.29121
  0
LINE
  8
0
 10
27.1151
 20
-3.29121
 11
26.6252
 21
-3.55872
  0
LINE
  8
0
 10
26.6252
 20
-3.55872
 11
26.1022
 21
-3.75381
  0
LINE
  8
0
 10
26.1022
 20
-3.75381
 11
25.5568
 21
-3.87244
  0
LINE
  8
0
 10
25.5568
 20
-3.87244
 11
25
 21
-3.91228
  0
LINE
  8
0
 10
25
 20
-3.91228
 11
24.4432
 21
-3.87244
  0
LINE
  8
0
 10
-0.268066
 20
-3.57722
 11
-0.798187
 21
-3.49733
  0
LINE
  8
0
 10
-0.798187
 20
-3.49733
 11
-1.31064
 21
-3.33925
  0
LINE
  8
0
 10
-1.31064
 20
-3.33925
 11
-1.79359
 21
-3.10666
  0
LINE
  8
0
 10
-1.79359
 20
-3.10666
 11
-2.2366
 21
-2.80464
  0
LINE
  8
0
 10
-2.2366
 20
-2.80464
 11
-2.62967
 21
-2.43991
  0
LINE
  8
0
 10
-2.62967
 20
-2.43991
 11
-2.96391
 21
-2.02078
  0
LINE
  8
0
 10
-2.96391
 20
-2.02078
 11
-3.23198
 21
-1.55646
  0
LINE
  8
0
 10
-3.23198
 20
-1.55646
 11
-3.42786
 21
-1.05739
  0
LINE
  8
0
 10
-3.42786
 20
-1.05739
 11
-3.54718
 21
-0.534576
  0
LINE
  8
0
 10
-3.54718
 20
-0.534576
 11
-3.58725
 21
0
  0
LINE
  8
0
 10
-3.58725
 20
0
 11
-3.54718
 21
0.534576
  0
LINE
  8
0
 10
-3.54718
 20
0.534576
 11
-3.42786
 21
1.05739
  0
LINE
  8
0
 10
-3.42786
 20
1.05739
 11
-3.23198
 21
1.55646
  0
LINE
  8
0
 10
-3.23198
 20
1.55646
 11
-2.96391
 21
2.02078
  0
LINE
  8
0
 10
-2.96391
 20
2.02078
 11
-2.62967
 21
2.43991
  0
LINE
  8
0
 10
-2.62967
 20
2.43991
 11
-2.2366
 21
2.80464
  0
LINE
  8
0
 10
-2.2366
 20
2.80464
 11
-1.79359
 21
3.10666
  0
LINE
  8
0
 10
-1.79359
 20
3.10666
 11
-1.31064
 21
3.33925
  0
LINE
  8
0
 10
-1.31064
 20
3.33925
 11
-0.798187
 21
3.49733
  0
LINE
  8
0
 10
-0.798187
 20
3.49733
 11
-0.268066
 21
3.57722
  0
LINE
  8
0
 10
-0.268066
 20
3.57722
 11
0.268066
 21
3.57722
  0
LINE
  8
0
 10
0.268066
 20
3.57722
 11
0.798187
 21
3.49733
  0
LINE
  8
0
 10
0.798187
 20
3.49733
 11
1.31064
 21
3.33925
  0
LINE
  8
0
 10
1.31064
 20
3.33925
 11
1.79359
 21
3.10666
  0
LINE
  8
0
 10
1.79359
 20
3.10666
 11
2.2366
 21
2.80464
  0
LINE
  8
0
 10
2.2366
 20
2.80464
 11
2.62967
 21
2.43991
  0
LINE
  8
0
 10
2.62967
 20
2.43991
 11
2.96391
 21
2.02078
  0
LINE
  8
0
 10
2.96391
 20
2.02078
 11
3.23198
 21
1.55646
  0
LINE
  8
0
 10
3.23198
 20
1.55646
 11
3.42786
 21
1.05739
  0
LINE
  8
0
 10
3.42786
 20
1.05739
 11
3.54718
 21
0.534576
  0
LINE
  8
0
 10
3.54718
 20
0.534576
 11
3.58725
 21
0
  0
LINE
  8
0
 10
3.58725
 20
0
 11
3.54718
 21
-0.534576
  0
LINE
  8
0
 10
3.54718
 20
-0.534576
 11
3.42786
 21
-1.05739
  0
LINE
  8
0
 10
3.42786
 20
-1.05739
 11
3.23198
 21
-1.55646
  0
LINE
  8
0
 10
3.23198
 20
-1.55646
 11
2.96391
 21
-2.02078
  0
LINE
  8
0
 10
2.96391
 20
-2.02078
 11
2.62967
 21
-2.43991
  0
LINE
  8
0
 10
2.62967
 20
-2.43991
 11
2.2366
 21
-2.80464
  0
LINE
  8
0
 10
2.2366
 20
-2.80464
 11
1.79359
 21
-3.10666
  0
LINE
  8
0
 10
1.79359
 20
-3.10666
 11
1.31064
 21
-3.33925
  0
LINE
  8
0
 10
1.31064
 20
-3.33925
 11
0.798187
 21
-3.49733
  0
LINE
  8
0
 10
0.798187
 20
-3.49733
 11
0.268066
 21
-3.57722
  0
LINE
  8
0
 10
0.268066
 20
-3.57722
 11
-0.268066
 21
-3.57722
  0
ENDSEC
  0
SECTION
  2
OBJECTS
  0
DICTIONARY
  0
ENDSEC
  0
EOF
